<?xml version="1.0" encoding="UTF-8" standalone="no"?>
<!DOCTYPE svg PUBLIC "-//W3C//DTD SVG 1.1//EN" "http://www.w3.org/Graphics/SVG/1.1/DTD/svg11.dtd">
<svg width="100%" height="100%" viewBox="0 0 485 142" version="1.1" xmlns="http://www.w3.org/2000/svg" xmlns:xlink="http://www.w3.org/1999/xlink" xml:space="preserve" xmlns:serif="http://www.serif.com/" style="fill-rule:evenodd;clip-rule:evenodd;stroke-linejoin:round;stroke-miterlimit:2;">
    <g transform="matrix(1,0,0,1,-756.869,-183.602)">
        <g transform="matrix(2.08333,0,0,2.08333,-904.053,79.4353)">
            <g transform="matrix(0.987788,0,0,0.730967,9.24434,26.2203)">
                <rect x="797.74" y="94.128" width="186.879" height="8.716" style="fill:rgb(250,249,246);"/>
            </g>
            <g transform="matrix(0.602344,0,0,1,389.592,0)">
                <rect x="972.911" y="99.941" width="10.328" height="17.788" style="fill:rgb(250,249,246);"/>
            </g>
        </g>
        <g transform="matrix(2.08333,0,0,2.08333,-306.658,330.824)">
            <g transform="matrix(0.32333,0,0,0.32333,553.723,-38.9929)">
                <path d="M0,33.436C0,37.826 -0.83,41.384 -2.489,44.109C-4.148,46.834 -7.513,48.197 -12.581,48.197C-15.808,48.197 -18.549,47.509 -20.807,46.133C-23.066,44.757 -24.194,42.868 -24.194,40.467C-24.194,37.572 -21.982,35.561 -17.558,34.431C-13.134,33.301 -10.922,31.749 -10.922,29.772C-10.922,27.725 -12.121,26.173 -14.516,25.113C-16.914,24.054 -19.586,23.524 -22.535,23.524C-28.251,23.524 -32.997,24.867 -36.775,27.552C-40.555,30.237 -42.443,33.7 -42.443,37.941C-42.443,44.302 -39.172,48.966 -32.627,51.934C-26.084,54.9 -18.387,56.385 -9.539,56.385C-4.839,56.385 0.022,55.854 5.046,54.793C10.069,53.732 14.216,52.103 17.489,49.908C20.759,47.713 22.857,45.146 23.779,42.208C24.699,39.27 25.162,35.5 25.162,30.897L25.162,-11.055C25.162,-12.115 25.321,-13.001 25.645,-13.709C25.967,-14.417 26.635,-14.948 27.65,-15.302L29.171,-15.94C30.277,-16.505 31.106,-16.947 31.659,-17.266C32.212,-17.585 32.489,-18.275 32.489,-19.339C32.489,-20.754 31.867,-21.71 30.622,-22.205C29.378,-22.7 27.741,-22.949 25.715,-22.949L-0.553,-22.949C-2.398,-22.949 -3.988,-22.665 -5.323,-22.1C-6.66,-21.534 -7.327,-20.613 -7.327,-19.339C-7.327,-18.418 -7.075,-17.763 -6.567,-17.374C-6.061,-16.986 -5.208,-16.507 -4.009,-15.94L-2.489,-15.304C-1.475,-14.948 -0.808,-14.418 -0.484,-13.71C-0.162,-13.003 0,-12.153 0,-11.163L0,33.436ZM106.176,23.524C106.176,19.483 105.347,16.151 103.688,13.528C102.029,10.905 99.354,8.779 95.669,7.147C91.982,5.517 88.156,4.4 84.194,3.797C80.23,3.195 76.128,2.893 71.89,2.893C65.898,2.893 59.631,3.549 53.088,4.86C46.543,6.173 43.272,8.459 43.272,11.72C43.272,13.493 44.102,14.787 45.761,15.601C47.42,16.417 49.446,16.824 51.844,16.824C54.332,16.824 57.395,15.691 61.037,13.421C64.677,11.153 67.742,10.018 70.231,10.018C74.562,10.018 77.787,11.028 79.908,13.049C82.028,15.07 83.088,17.781 83.088,21.185L78.388,21.185C68.248,21.185 59.033,22.634 50.738,25.531C42.443,28.429 38.295,33.237 38.295,39.951C38.295,45.113 40.706,49.14 45.532,52.038C50.357,54.936 56.216,56.385 63.109,56.385C67.611,56.385 71.747,55.721 75.515,54.391C79.282,53.062 82.267,51.033 84.475,48.303C84.475,50.927 84.89,52.681 85.724,53.567C86.557,54.454 88.64,54.896 91.975,54.896L105.865,54.896C108.179,54.896 110.006,54.702 111.35,54.312C112.693,53.923 113.365,52.982 113.365,51.493C113.365,50.573 113.11,49.916 112.605,49.526C112.097,49.137 111.153,48.693 109.771,48.197C108.388,47.701 107.466,47.08 107.006,46.336C106.543,45.591 106.291,44.652 106.245,43.517C106.198,42.384 106.176,41.321 106.176,40.327L106.176,23.524ZM83.641,27.884L83.641,31.269C83.641,34.232 83.503,36.435 83.229,37.881C82.952,39.327 82.151,40.86 80.824,42.482C79.496,44.104 77.917,45.373 76.085,46.291C74.253,47.208 72.283,47.665 70.177,47.665C67.52,47.665 65.412,46.925 63.856,45.443C62.299,43.963 61.521,42.165 61.521,40.049C61.521,36.03 63.444,32.997 67.291,30.952C71.138,28.908 75.763,27.884 81.168,27.884L83.641,27.884ZM220.369,3.744L209.033,3.744C207.097,3.744 205.576,3.921 204.47,4.274C203.364,4.628 202.811,5.405 202.811,6.607C202.811,7.951 203.848,9.154 205.922,10.214C207.996,11.274 209.033,12.83 209.033,14.88C209.033,18.275 207.765,22.977 205.231,28.988C202.695,34.998 200.137,39.877 197.558,43.624L189.263,27.078C187.787,23.047 186.751,19.972 186.152,17.85C185.552,15.729 185.254,13.996 185.254,12.654C185.254,11.593 186.036,10.673 187.604,9.895C189.17,9.118 189.954,8.164 189.954,7.032C189.954,5.547 189.354,4.628 188.157,4.274C186.958,3.921 185.068,3.744 182.489,3.744L164.24,3.744C162.58,3.744 161.105,3.956 159.815,4.38C158.524,4.805 157.88,5.583 157.88,6.713C157.88,7.491 158.04,8.057 158.364,8.411C158.686,8.765 159.47,9.348 160.714,10.161C161.958,10.975 162.764,11.823 163.133,12.707C163.501,13.591 163.687,14.88 163.687,16.577L163.687,17.85C163.687,26.759 160.921,35.352 155.391,43.624C153.64,41.36 152.164,39.046 150.967,36.676C149.769,34.308 148.501,31.214 147.166,27.396C145.828,23.577 144.861,20.502 144.262,18.169C143.662,15.836 143.364,14.033 143.364,12.76C143.364,11.77 144.169,10.904 145.783,10.161C147.395,9.418 148.202,8.411 148.202,7.138C148.202,5.653 147.626,4.716 146.474,4.327C145.321,3.938 143.547,3.744 141.152,3.744L121.244,3.744C119.215,3.744 117.625,3.956 116.474,4.38C115.32,4.805 114.746,5.689 114.746,7.034C114.746,7.813 115.068,8.503 115.714,9.104C116.357,9.706 117.049,10.254 117.787,10.749C118.524,11.244 119.032,11.864 119.308,12.607C119.585,13.35 119.814,14.039 119.999,14.676L121.52,19.981C122.993,25.006 124.745,29.782 126.774,34.31C128.8,38.84 131.036,43.049 133.479,46.94C135.92,50.832 138.017,53.378 139.769,54.581C141.519,55.784 144.47,56.385 148.617,56.385C151.196,56.385 153.201,56.119 154.631,55.593C156.059,55.063 157.742,53.758 159.677,51.678C161.613,49.597 163.341,47.323 164.862,44.853C166.382,42.384 168.063,39.245 169.908,35.435C172.027,39.739 173.824,43.16 175.3,45.699C176.773,48.238 178.41,50.425 180.207,52.259C182.005,54.094 183.64,55.239 185.115,55.697C186.589,56.156 188.662,56.385 191.337,56.385C193.363,56.385 195.069,56.226 196.452,55.908C197.834,55.588 199.193,54.916 200.53,53.891C201.865,52.866 203.295,51.256 204.816,49.062C206.337,46.869 207.696,44.676 208.894,42.482L220.369,15.206C220.922,13.651 221.359,12.642 221.683,12.182C222.004,11.723 222.65,11.087 223.618,10.272C224.586,9.458 225.253,8.803 225.623,8.308C225.99,7.813 226.176,7.281 226.176,6.715C226.176,5.513 225.668,4.717 224.655,4.329C223.64,3.94 222.212,3.744 220.369,3.744ZM296.958,23.524C296.958,19.483 296.129,16.151 294.47,13.528C292.811,10.905 290.137,8.779 286.451,7.147C282.764,5.517 278.938,4.4 274.977,3.797C271.013,3.195 266.911,2.893 262.672,2.893C256.68,2.893 250.413,3.549 243.87,4.86C237.325,6.173 234.054,8.459 234.054,11.72C234.054,13.493 234.884,14.787 236.543,15.601C238.202,16.417 240.228,16.824 242.626,16.824C245.114,16.824 248.178,15.691 251.82,13.421C255.459,11.153 258.525,10.018 261.013,10.018C265.344,10.018 268.57,11.028 270.691,13.049C272.81,15.07 273.871,17.781 273.871,21.185L269.17,21.185C259.03,21.185 249.815,22.634 241.52,25.531C233.225,28.429 229.077,33.237 229.077,39.951C229.077,45.113 231.488,49.14 236.314,52.038C241.14,54.936 246.998,56.385 253.891,56.385C258.393,56.385 262.53,55.721 266.297,54.391C270.064,53.062 273.05,51.033 275.257,48.303C275.257,50.927 275.672,52.681 276.506,53.567C277.34,54.454 279.422,54.896 282.757,54.896L296.647,54.896C298.961,54.896 300.788,54.702 302.132,54.312C303.476,53.923 304.147,52.982 304.147,51.493C304.147,50.573 303.893,49.916 303.387,49.526C302.879,49.137 301.935,48.693 300.553,48.197C299.17,47.701 298.248,47.08 297.788,46.336C297.326,45.591 297.073,44.652 297.028,43.517C296.98,42.384 296.958,41.321 296.958,40.327L296.958,23.524ZM274.424,27.884L274.424,31.269C274.424,34.232 274.285,36.435 274.011,37.881C273.734,39.327 272.933,40.86 271.607,42.482C270.278,44.104 268.699,45.373 266.867,46.291C265.035,47.208 263.065,47.665 260.959,47.665C258.302,47.665 256.194,46.925 254.639,45.443C253.081,43.963 252.303,42.165 252.303,40.049C252.303,36.03 254.226,32.997 258.073,30.952C261.921,28.908 266.545,27.884 271.95,27.884L274.424,27.884ZM388.201,25.545C394.928,25.545 401.495,25.084 407.902,24.162C414.307,23.242 420.321,21.716 425.944,19.589C431.565,17.462 436.289,14.556 440.115,10.869C443.938,7.183 445.852,2.964 445.852,-1.786C445.852,-5.685 444.608,-9.106 442.119,-12.049C439.631,-14.99 436.289,-17.295 432.096,-18.961C427.901,-20.626 423.708,-21.708 419.515,-22.205C415.32,-22.7 410.55,-22.949 405.206,-22.949L362.487,-22.949C360.642,-22.949 359.052,-22.673 357.717,-22.122C356.38,-21.57 355.713,-20.673 355.713,-19.433C355.713,-18.538 355.965,-17.9 356.473,-17.521C356.978,-17.142 357.832,-16.677 359.031,-16.125L360.551,-15.505C361.564,-15.149 362.232,-14.616 362.556,-13.905C362.878,-13.194 363.04,-12.34 363.04,-11.344L363.04,42.949C363.04,44.016 362.878,44.905 362.556,45.616C362.232,46.327 361.564,46.861 360.551,47.216L359.031,47.856C357.924,48.426 357.095,48.871 356.542,49.19C355.989,49.509 355.713,50.202 355.713,51.269C355.713,52.691 356.335,53.652 357.579,54.15C358.823,54.649 360.458,54.896 362.487,54.896L388.34,54.896C391.195,54.896 393.477,54.737 395.183,54.418C396.887,54.099 397.741,53.16 397.741,51.6C397.741,50.608 397.486,49.881 396.98,49.42C396.473,48.959 395.367,48.481 393.662,47.984C391.956,47.489 390.85,47.063 390.344,46.708C389.837,46.354 389.467,45.928 389.238,45.432C389.007,44.936 388.776,44.351 388.547,43.677C388.316,43.004 388.201,42.313 388.201,41.603L388.201,25.545ZM388.201,-7.423C388.201,-8.202 388.271,-9.247 388.409,-10.56C388.547,-11.871 389.145,-12.916 390.206,-13.697C391.265,-14.476 392.463,-14.973 393.801,-15.186C395.136,-15.399 396.864,-15.505 398.985,-15.505C404.882,-15.505 409.676,-14.229 413.363,-11.677C417.048,-9.124 418.893,-5.615 418.893,-1.148C418.893,4.525 415.873,8.813 409.838,11.72C403.8,14.628 396.587,16.505 388.201,17.356L388.201,-7.423ZM463.893,54.847C468.362,55.872 473.224,56.385 478.478,56.385C489.076,56.385 498.317,53.874 506.197,48.85C514.078,43.826 518.018,37.316 518.018,29.32C518.018,21.608 514.168,15.276 506.474,10.322C498.777,5.37 489.86,2.893 479.722,2.893C474.192,2.893 469.008,3.513 464.169,4.751C459.33,5.99 455.021,7.9 451.243,10.482C447.462,13.064 444.538,16.018 442.464,19.343C440.39,22.67 439.353,26.173 439.353,29.852C439.353,33.743 440.412,37.424 442.533,40.89C444.652,44.356 447.693,47.329 451.657,49.805C455.343,52.141 459.421,53.821 463.893,54.847M491.059,43.109C488.938,47.068 484.79,49.047 478.616,49.047C472.717,49.047 468.662,47.05 466.45,43.055C464.238,39.061 463.132,34.448 463.132,29.215C463.132,24.267 464.353,19.918 466.796,16.171C469.237,12.424 473.27,10.55 478.893,10.55C484.423,10.55 488.363,12.389 490.713,16.065C493.063,19.742 494.239,23.95 494.239,28.685C494.239,34.342 493.178,39.15 491.059,43.109M559.393,21.796C556.338,21.231 553.887,20.558 552.037,19.78C550.186,19.003 549.262,17.765 549.262,16.067C549.262,14.086 550.324,12.6 552.454,11.61C554.582,10.62 557.034,10.124 559.812,10.124C564.901,10.124 569.019,11.65 572.166,14.697C575.311,17.747 577.579,19.27 578.968,19.27C580.817,19.27 581.975,18.81 582.437,17.888C582.9,16.967 583.133,15.691 583.133,14.059C583.133,12.429 582.947,10.975 582.58,9.699C582.211,8.423 581.081,7.325 579.193,6.402C577.303,5.482 574.261,4.666 570.068,3.956C565.873,3.249 561.981,2.893 558.386,2.893C550.091,2.893 542.74,4.393 536.335,7.393C529.928,10.392 526.727,14.89 526.727,20.889C526.727,26.322 528.569,29.727 532.257,31.103C535.942,32.479 541.934,34.014 550.229,35.707C558.524,37.402 562.672,39.661 562.672,42.482C562.672,44.601 561.428,46.171 558.939,47.195C556.451,48.218 553.776,48.728 550.921,48.728C547.233,48.728 544.423,48.123 542.487,46.91C540.552,45.697 538.755,44.4 537.096,43.014C535.437,41.628 534.238,40.727 533.501,40.312C532.762,39.897 531.704,39.689 530.321,39.689C528.662,39.689 527.28,40.182 526.174,41.169C525.068,42.156 524.515,43.283 524.515,44.549C524.515,46.523 525.597,48.285 527.764,49.833C529.928,51.384 533.063,52.863 537.165,54.272C541.265,55.681 546.773,56.385 553.686,56.385C557.28,56.385 561.035,56.031 564.953,55.325C568.87,54.617 572.395,53.504 575.529,51.982C578.662,50.461 581.219,48.499 583.202,46.093C585.183,43.688 586.175,41 586.175,38.029C586.175,33.574 584.392,30.285 580.83,28.162C577.268,26.04 572.296,24.342 565.914,23.069L559.393,21.796Z" style="fill-rule:nonzero;"/>
            </g>
            <g transform="matrix(0.32333,0,0,0.32333,600.176,-70.4993)">
                <path d="M0,52.121L-20.849,25.654L-0.739,0.221L-15.599,0.221L-32.899,22.992L-32.899,0.221L-45.542,0.221L-45.542,52.121L-32.899,52.121L-32.899,29.202L-15.452,52.121L0,52.121ZM52.712,52.639C57.592,52.639 62.052,51.505 66.094,49.238C70.135,46.971 73.339,43.804 75.705,39.738C78.071,35.671 79.254,31.1 79.254,26.023C79.254,20.947 78.082,16.388 75.742,12.346C73.4,8.305 70.197,5.15 66.131,2.883C62.065,0.616 57.592,-0.518 52.712,-0.518C47.833,-0.518 43.36,0.616 39.294,2.883C35.228,5.15 31.999,8.305 29.609,12.346C27.218,16.388 26.023,20.947 26.023,26.023C26.023,31.1 27.218,35.671 29.609,39.738C31.999,43.804 35.228,46.971 39.294,49.238C43.36,51.505 47.833,52.639 52.712,52.639M52.712,41.105C48.522,41.105 45.183,39.738 42.695,37.002C40.205,34.267 38.961,30.607 38.961,26.023C38.961,21.391 40.205,17.719 42.695,15.008C45.183,12.298 48.522,10.941 52.712,10.941C56.852,10.941 60.167,12.309 62.656,15.045C65.144,17.78 66.39,21.44 66.39,26.023C66.39,30.559 65.144,34.205 62.656,36.965C60.167,39.726 56.852,41.105 52.712,41.105M149.192,52.121L137.215,31.568C141.01,30.435 143.881,28.513 145.828,25.802C147.775,23.091 148.748,20.011 148.748,16.56C148.748,13.505 148.033,10.732 146.604,8.243C145.174,5.755 143.019,3.795 140.135,2.365C137.252,0.936 133.765,0.221 129.674,0.221L108.456,0.221L108.456,52.121L121.098,52.121L121.098,32.529L124.129,32.529L134.923,52.121L149.192,52.121ZM121.098,10.72L128.935,10.72C131.251,10.72 132.988,11.287 134.147,12.42C135.305,13.554 135.884,15.107 135.884,17.078C135.884,19.148 135.305,20.75 134.147,21.883C132.988,23.018 131.251,23.584 128.935,23.584L121.098,23.584L121.098,10.72ZM214.251,52.121L227.632,52.121L208.854,0.221L194.216,0.221L175.437,52.121L188.671,52.121L191.776,42.954L211.146,42.954L214.251,52.121ZM195.103,33.195L201.461,14.194L207.893,33.195L195.103,33.195ZM301.933,0.221L289.291,0.221L289.291,32.381L268.147,0.221L255.504,0.221L255.504,52.121L268.147,52.121L268.147,20.109L289.291,52.121L301.933,52.121L301.933,0.221Z" style="fill-rule:nonzero;"/>
            </g>
        </g>
    </g>
</svg>
