<?xml version="1.0" encoding="UTF-8" standalone="no"?>
<!DOCTYPE svg PUBLIC "-//W3C//DTD SVG 1.1//EN" "http://www.w3.org/Graphics/SVG/1.1/DTD/svg11.dtd">
<svg width="100%" height="100%" viewBox="0 0 285 169" version="1.1" xmlns="http://www.w3.org/2000/svg" xmlns:xlink="http://www.w3.org/1999/xlink" xml:space="preserve" xmlns:serif="http://www.serif.com/" style="fill-rule:evenodd;clip-rule:evenodd;stroke-linejoin:round;stroke-miterlimit:2;">
    <g transform="matrix(1,0,0,1,-173.852,-173.9)">
        <g transform="matrix(2.08333,0,0,2.08333,-254.013,-250.11)">
            <g transform="matrix(4.98515,0,0,4.98515,271.867,250.5)">
                <path d="M0,-2.576C0.003,-2.656 0.006,-2.737 0.006,-2.818C0.006,-6.466 -2.981,-9.423 -6.666,-9.423C-10.351,-9.423 -13.338,-6.466 -13.338,-2.818C-13.338,0.831 -10.351,3.788 -6.666,3.788C-6.392,3.788 -6.122,3.77 -5.856,3.738C-7.09,4.843 -9.591,6.562 -10.472,6.847C-10.472,6.847 -1.469,5.476 -0.084,-1.594C0.006,-2.053 0.027,-2.372 0,-2.576" style="fill:rgb(0,121,183);fill-rule:nonzero;"/>
            </g>
            <g transform="matrix(4.98515,0,0,4.98515,341.895,250.5)">
                <path d="M0,-2.576C0.003,-2.656 0.006,-2.737 0.006,-2.818C0.006,-6.466 -2.981,-9.423 -6.666,-9.423C-10.351,-9.423 -13.338,-6.466 -13.338,-2.818C-13.338,0.831 -10.351,3.788 -6.666,3.788C-6.392,3.788 -6.122,3.77 -5.856,3.738C-7.09,4.843 -9.591,6.562 -10.472,6.847C-10.472,6.847 -1.469,5.476 -0.084,-1.594C0.006,-2.053 0.027,-2.372 0,-2.576" style="fill:rgb(0,121,183);fill-rule:nonzero;"/>
            </g>
        </g>
    </g>
</svg>
