<?xml version="1.0" encoding="utf-8"?>
<!-- Generator: Adobe Illustrator 27.5.0, SVG Export Plug-In . SVG Version: 6.00 Build 0)  -->
<svg version="1.1" id="Layer_1" xmlns="http://www.w3.org/2000/svg" xmlns:xlink="http://www.w3.org/1999/xlink" x="0px" y="0px"
	 viewBox="0 0 50.63 48.98" style="enable-background:new 0 0 50.63 48.98;" xml:space="preserve">
<style type="text/css">
	.st0{fill-rule:evenodd;clip-rule:evenodd;fill:#047CBC;}
	.st1{fill:#FFFFFF;}
</style>
<path class="st0" d="M50.63,11.2v37.78H0V0h39.43C45.61,0,50.63,5.02,50.63,11.2z"/>
<path class="st1" d="M16.09,27.08V16.96c0-0.22-0.04-0.42-0.11-0.58c-0.07-0.16-0.22-0.28-0.45-0.36l-0.34-0.14
	c-0.27-0.13-0.47-0.24-0.58-0.32c-0.12-0.09-0.17-0.24-0.17-0.45c0-0.29,0.15-0.5,0.45-0.63c0.3-0.13,0.66-0.19,1.08-0.19h5.96
	c0.46,0,0.83,0.06,1.11,0.17c0.28,0.11,0.42,0.33,0.42,0.65c0,0.24-0.06,0.4-0.19,0.47c-0.13,0.07-0.31,0.17-0.56,0.3l-0.34,0.15
	c-0.23,0.08-0.38,0.2-0.45,0.36c-0.07,0.16-0.11,0.36-0.11,0.6v9.52c0,1.04-0.1,1.9-0.31,2.57c-0.21,0.67-0.69,1.25-1.43,1.75
	c-0.74,0.5-1.68,0.87-2.82,1.11c-1.14,0.24-2.24,0.36-3.31,0.36c-2.01,0-3.75-0.34-5.24-1.01c-1.48-0.67-2.23-1.73-2.23-3.17
	c0-0.96,0.43-1.75,1.29-2.36c0.86-0.61,1.93-0.91,3.23-0.91c0.67,0,1.28,0.12,1.82,0.36c0.54,0.24,0.82,0.59,0.82,1.06
	c0,0.45-0.5,0.8-1.51,1.06c-1,0.26-1.51,0.71-1.51,1.37c0,0.54,0.26,0.97,0.77,1.28c0.51,0.31,1.13,0.47,1.87,0.47
	c1.15,0,1.91-0.31,2.29-0.93C15.9,28.88,16.09,28.08,16.09,27.08z"/>
<path class="st1" d="M31.09,31.68c0,0.16,0.03,0.32,0.08,0.47c0.05,0.15,0.1,0.29,0.16,0.4c0.05,0.11,0.14,0.21,0.25,0.29
	c0.11,0.08,0.37,0.18,0.75,0.29c0.39,0.11,0.64,0.22,0.75,0.33c0.11,0.1,0.17,0.27,0.17,0.49c0,0.35-0.19,0.57-0.58,0.64
	c-0.39,0.07-0.9,0.11-1.55,0.11h-5.86c-0.46,0-0.83-0.06-1.11-0.17c-0.28-0.11-0.42-0.33-0.42-0.65c0-0.24,0.06-0.4,0.19-0.47
	c0.13-0.07,0.31-0.17,0.56-0.3l0.34-0.15c0.23-0.08,0.38-0.2,0.45-0.36c0.07-0.16,0.11-0.36,0.11-0.6V19.67
	c0-0.23-0.04-0.42-0.11-0.58c-0.07-0.16-0.22-0.28-0.45-0.36l-0.34-0.14c-0.27-0.12-0.47-0.23-0.58-0.32
	c-0.12-0.09-0.17-0.23-0.17-0.43c0-0.28,0.15-0.49,0.45-0.61c0.3-0.13,0.66-0.19,1.08-0.19h9.69c1.21,0,2.29,0.06,3.25,0.17
	c0.95,0.11,1.9,0.36,2.85,0.74c0.95,0.38,1.71,0.9,2.27,1.57c0.56,0.67,0.85,1.44,0.85,2.33c0,1.08-0.43,2.04-1.3,2.87
	c-0.87,0.84-1.94,1.5-3.21,1.98c-1.28,0.48-2.64,0.83-4.09,1.04c-1.45,0.21-2.94,0.31-4.47,0.31V31.68z M31.09,26.18
	c1.9-0.19,3.54-0.62,4.91-1.28c1.37-0.66,2.05-1.63,2.05-2.92c0-1.01-0.42-1.81-1.25-2.39c-0.84-0.58-1.92-0.87-3.26-0.87
	c-0.48,0-0.87,0.02-1.18,0.07c-0.3,0.05-0.58,0.16-0.82,0.34c-0.24,0.18-0.38,0.41-0.41,0.71c-0.03,0.3-0.05,0.53-0.05,0.71V26.18z"
	/>
</svg>
