<?xml version="1.0" encoding="UTF-8" standalone="no"?>
<!DOCTYPE svg PUBLIC "-//W3C//DTD SVG 1.1//EN" "http://www.w3.org/Graphics/SVG/1.1/DTD/svg11.dtd">
<svg width="100%" height="100%" viewBox="0 0 47 1513" version="1.1" xmlns="http://www.w3.org/2000/svg" xmlns:xlink="http://www.w3.org/1999/xlink" xml:space="preserve" xmlns:serif="http://www.serif.com/" style="fill-rule:evenodd;clip-rule:evenodd;stroke-linejoin:round;stroke-miterlimit:2;">
    <g transform="matrix(1,0,0,1,-1138.1,-502.562)">
        <g>
            <g transform="matrix(4.75985e-17,0.777342,-0.777342,4.75985e-17,1148.61,1646.29)">
                <path d="M0,-46.089L-46.876,-46.089C-51.508,-46.089 -55.263,-42.334 -55.263,-37.704L-55.263,-8.385C-55.263,-3.753 -51.508,0 -46.876,0L0,0C4.629,0 8.385,-3.753 8.385,-8.385L8.385,-37.704C8.385,-42.334 4.629,-46.089 0,-46.089M-15.909,-21.021L-28.944,-14.508C-30.448,-13.754 -32.219,-14.847 -32.219,-16.528L-32.219,-29.558C-32.219,-31.239 -30.448,-32.333 -28.944,-31.582L-15.909,-25.065C-14.244,-24.234 -14.244,-21.855 -15.909,-21.021" style="fill-rule:nonzero;"/>
            </g>
            <g transform="matrix(1.1243e-16,1.83612,-1.83612,1.1243e-16,3707.13,-392.933)">
                <g transform="matrix(0.373124,0,0,0.373124,504.811,1396.47)">
                    <path d="M0,-60.415L-31.249,-60.415C-39.301,-60.415 -45.832,-53.884 -45.832,-45.832L-45.832,-14.583C-45.832,-6.531 -39.301,0 -31.249,0L0,0C8.052,0 14.583,-6.531 14.583,-14.583L14.583,-45.832C14.583,-53.884 8.052,-60.415 0,-60.415M9.375,-15.625C9.375,-9.875 4.708,-5.209 -1.042,-5.209L-30.207,-5.209C-35.957,-5.209 -40.624,-9.875 -40.624,-15.625L-40.624,-44.79C-40.624,-50.54 -35.957,-55.207 -30.207,-55.207L-1.042,-55.207C4.708,-55.207 9.375,-50.54 9.375,-44.79L9.375,-15.625Z" style="fill-rule:nonzero;"/>
                </g>
                <g transform="matrix(0.373124,0,0,0.373124,498.992,1391.03)">
                    <path d="M0,-31.249C-8.625,-31.249 -15.625,-24.249 -15.625,-15.625C-15.625,-7 -8.625,0 0,0C8.625,0 15.624,-7 15.624,-15.625C15.624,-24.249 8.625,-31.249 0,-31.249M0,-5.208C-5.739,-5.208 -10.416,-9.885 -10.416,-15.625C-10.416,-21.364 -5.739,-26.041 0,-26.041C5.739,-26.041 10.416,-21.364 10.416,-15.625C10.416,-9.885 5.739,-5.208 0,-5.208" style="fill-rule:nonzero;"/>
                </g>
                <g transform="matrix(0.373124,0,0,0.373124,505.211,1377.81)">
                    <path d="M0,6.25C-1.723,6.25 -3.125,4.848 -3.125,3.125C-3.125,1.402 -1.723,0 0,0C1.723,0 3.125,1.402 3.125,3.125C3.125,4.848 1.723,6.25 0,6.25" style="fill-rule:nonzero;"/>
                </g>
            </g>
            <g transform="matrix(1.27567e-16,2.08333,-0.818013,5.00888e-17,2110.68,140.371)">
                <path d="M214.129,1171.23C213.621,1172.73 213.053,1173.92 212.424,1174.83C211.795,1175.73 211.164,1176.19 210.531,1176.19C209.836,1176.19 209.16,1175.67 208.504,1174.63C207.848,1173.6 207.314,1172.01 206.904,1169.86C206.494,1167.71 206.289,1165.35 206.289,1162.79C206.289,1159.62 206.607,1156.45 207.244,1153.28C207.881,1150.11 208.672,1147.72 209.617,1146.13C210.562,1144.54 211.48,1143.75 212.371,1143.75C213.051,1143.75 213.699,1144.2 214.316,1145.1C214.934,1146.01 215.465,1147.39 215.91,1149.24L216.309,1144.61L218.406,1144.61L216.719,1164.64C216.484,1167.42 216.367,1168.96 216.367,1169.26C216.367,1169.8 216.447,1170.26 216.607,1170.65C216.768,1171.04 216.961,1171.23 217.187,1171.23C217.602,1171.23 218.145,1170.63 218.816,1169.41C219.707,1167.82 220.412,1165.69 220.932,1163.01C221.451,1160.33 221.711,1157.57 221.711,1154.73C221.711,1151.4 221.377,1148.3 220.709,1145.42C220.041,1142.53 219.045,1140.22 217.721,1138.49C216.396,1136.76 214.934,1135.89 213.332,1135.89C211.504,1135.89 209.834,1136.99 208.322,1139.16C206.811,1141.34 205.639,1144.47 204.807,1148.54C203.975,1152.6 203.559,1156.97 203.559,1161.62C203.559,1166.5 203.975,1170.69 204.807,1174.22C205.639,1177.74 206.842,1180.34 208.416,1182.02C209.99,1183.7 211.734,1184.54 213.648,1184.54C215.695,1184.54 217.41,1183.67 218.793,1181.92C220.176,1180.17 221.211,1178.04 221.898,1175.53L224.02,1175.53C223.621,1177.62 222.937,1179.75 221.969,1181.92C221,1184.09 219.848,1185.8 218.512,1187.07C217.176,1188.33 215.566,1188.96 213.684,1188.96C211.949,1188.96 210.35,1188.39 208.885,1187.26C207.42,1186.12 206.172,1184.42 205.141,1182.14C204.109,1179.86 203.332,1177.24 202.809,1174.28C202.152,1170.52 201.824,1166.46 201.824,1162.1C201.824,1157.25 202.215,1152.62 202.996,1148.22C203.949,1142.83 205.303,1138.7 207.057,1135.84C208.811,1132.97 210.937,1131.54 213.437,1131.54C215.375,1131.54 217.115,1132.55 218.658,1134.57C220.201,1136.59 221.418,1139.6 222.309,1143.6C223.066,1147.04 223.445,1150.78 223.445,1154.82C223.445,1160.59 222.648,1165.71 221.055,1170.19C219.633,1174.21 218.078,1176.22 216.391,1176.22C215.852,1176.22 215.416,1176.01 215.084,1175.59C214.752,1175.17 214.508,1174.58 214.352,1173.8C214.25,1173.3 214.176,1172.45 214.129,1171.23ZM208.457,1163.14C208.457,1165.87 208.711,1167.99 209.219,1169.5C209.727,1171.01 210.309,1171.77 210.965,1171.77C211.402,1171.77 211.863,1171.44 212.348,1170.77C212.832,1170.1 213.295,1169.11 213.736,1167.8C214.178,1166.49 214.539,1164.82 214.82,1162.8C215.102,1160.78 215.242,1158.76 215.242,1156.73C215.242,1154.02 214.979,1151.92 214.451,1150.43C213.924,1148.94 213.281,1148.19 212.523,1148.19C212.023,1148.19 211.553,1148.52 211.111,1149.16C210.67,1149.81 210.242,1150.85 209.828,1152.28C209.414,1153.71 209.082,1155.45 208.832,1157.5C208.582,1159.55 208.457,1161.43 208.457,1163.14Z" style="fill-rule:nonzero;"/>
                <path d="M226.48,1176.1L226.48,1132.34L228.59,1132.34L228.59,1157.3L233.582,1144.4L236.312,1144.4L231.555,1156.16L236.793,1176.1L234.191,1176.1L230.078,1159.89L228.59,1163.53L228.59,1176.1L226.48,1176.1Z" style="fill-rule:nonzero;"/>
                <path d="M237.684,1160.25C237.684,1154.38 238.324,1150.03 239.605,1147.21C240.676,1144.86 241.98,1143.68 243.52,1143.68C245.23,1143.68 246.629,1145.11 247.715,1147.97C248.801,1150.82 249.344,1154.77 249.344,1159.8C249.344,1163.88 249.104,1167.09 248.623,1169.43C248.143,1171.77 247.443,1173.58 246.525,1174.87C245.607,1176.17 244.605,1176.81 243.52,1176.81C241.777,1176.81 240.369,1175.39 239.295,1172.55C238.221,1169.7 237.684,1165.6 237.684,1160.25ZM239.852,1160.25C239.852,1164.31 240.199,1167.35 240.895,1169.37C241.59,1171.39 242.465,1172.4 243.52,1172.4C244.566,1172.4 245.437,1171.38 246.133,1169.35C246.828,1167.32 247.176,1164.23 247.176,1160.07C247.176,1156.15 246.826,1153.18 246.127,1151.16C245.428,1149.14 244.559,1148.13 243.52,1148.13C242.465,1148.13 241.59,1149.14 240.895,1151.15C240.199,1153.16 239.852,1156.19 239.852,1160.25Z" style="fill-rule:nonzero;"/>
                <path d="M251.793,1176.1L251.793,1144.4L253.691,1144.4L253.691,1149.21C254.176,1146.96 254.623,1145.48 255.033,1144.76C255.443,1144.04 255.895,1143.68 256.387,1143.68C257.098,1143.68 257.82,1144.26 258.555,1145.42L257.828,1150.4C257.312,1149.62 256.797,1149.24 256.281,1149.24C255.82,1149.24 255.406,1149.59 255.039,1150.3C254.672,1151 254.41,1151.98 254.254,1153.24C254.02,1155.15 253.902,1157.24 253.902,1159.5L253.902,1176.1L251.793,1176.1Z" style="fill-rule:nonzero;"/>
                <path d="M267.93,1172.19C267.148,1173.88 266.396,1175.07 265.674,1175.77C264.951,1176.46 264.176,1176.81 263.348,1176.81C261.98,1176.81 260.93,1175.96 260.195,1174.26C259.461,1172.56 259.094,1170.39 259.094,1167.74C259.094,1166.19 259.232,1164.77 259.51,1163.49C259.787,1162.2 260.15,1161.17 260.6,1160.4C261.049,1159.62 261.555,1159.04 262.117,1158.64C262.531,1158.36 263.156,1158.09 263.992,1157.83C265.695,1157.31 266.949,1156.7 267.754,1155.98C267.762,1155.25 267.766,1154.78 267.766,1154.58C267.766,1152.39 267.566,1150.85 267.168,1149.95C266.629,1148.74 265.828,1148.13 264.766,1148.13C263.773,1148.13 263.041,1148.58 262.568,1149.46C262.096,1150.35 261.746,1151.91 261.52,1154.16L259.457,1153.44C259.645,1151.2 259.953,1149.38 260.383,1148C260.812,1146.62 261.434,1145.55 262.246,1144.8C263.059,1144.06 264,1143.68 265.07,1143.68C266.133,1143.68 266.996,1144 267.66,1144.64C268.324,1145.28 268.812,1146.08 269.125,1147.04C269.437,1148.01 269.656,1149.23 269.781,1150.7C269.852,1151.61 269.887,1153.27 269.887,1155.65L269.887,1162.82C269.887,1167.81 269.932,1170.97 270.021,1172.29C270.111,1173.62 270.289,1174.88 270.555,1176.1L268.352,1176.1C268.133,1174.98 267.992,1173.68 267.93,1172.19ZM267.754,1160.19C266.988,1160.99 265.84,1161.66 264.309,1162.22C263.441,1162.54 262.828,1162.9 262.469,1163.29C262.109,1163.69 261.832,1164.27 261.637,1165.04C261.441,1165.81 261.344,1166.66 261.344,1167.59C261.344,1169.02 261.557,1170.22 261.982,1171.17C262.408,1172.13 263.031,1172.61 263.852,1172.61C264.664,1172.61 265.387,1172.15 266.02,1171.25C266.652,1170.34 267.117,1169.1 267.414,1167.53C267.641,1166.32 267.754,1164.53 267.754,1162.16L267.754,1160.19Z" style="fill-rule:nonzero;"/>
                <path d="M273.156,1176.1L273.156,1144.4L275.055,1144.4L275.055,1148.91C275.969,1145.43 277.289,1143.68 279.016,1143.68C279.766,1143.68 280.455,1144.03 281.084,1144.71C281.713,1145.4 282.184,1146.3 282.496,1147.42C282.809,1148.53 283.027,1149.85 283.152,1151.38C283.23,1152.38 283.27,1154.12 283.27,1156.61L283.27,1176.1L281.16,1176.1L281.16,1156.82C281.16,1154.63 281.078,1152.99 280.914,1151.91C280.75,1150.82 280.459,1149.96 280.041,1149.31C279.623,1148.66 279.133,1148.34 278.57,1148.34C277.672,1148.34 276.896,1149.07 276.244,1150.52C275.592,1151.97 275.266,1154.73 275.266,1158.79L275.266,1176.1L273.156,1176.1Z" style="fill-rule:nonzero;"/>
                <rect x="287.102" y="1169.98" width="2.402" height="6.118" style="fill-rule:nonzero;"/>
                <path d="M293.16,1138.58L293.16,1132.34L295.27,1132.34L295.27,1138.58L293.16,1138.58ZM290.488,1188.39L290.887,1183.83C291.309,1184.11 291.641,1184.25 291.883,1184.25C292.312,1184.25 292.633,1183.88 292.844,1183.16C293.055,1182.43 293.16,1180.61 293.16,1177.71L293.16,1144.4L295.27,1144.4L295.27,1177.83C295.27,1181.73 295.07,1184.44 294.672,1185.98C294.164,1187.97 293.32,1188.96 292.141,1188.96C291.57,1188.96 291.02,1188.77 290.488,1188.39Z" style="fill-rule:nonzero;"/>
                <path d="M306.625,1172.19C305.844,1173.88 305.092,1175.07 304.369,1175.77C303.646,1176.46 302.871,1176.81 302.043,1176.81C300.676,1176.81 299.625,1175.96 298.891,1174.26C298.156,1172.56 297.789,1170.39 297.789,1167.74C297.789,1166.19 297.928,1164.77 298.205,1163.49C298.482,1162.2 298.846,1161.17 299.295,1160.4C299.744,1159.62 300.25,1159.04 300.812,1158.64C301.227,1158.36 301.852,1158.09 302.687,1157.83C304.391,1157.31 305.645,1156.7 306.449,1155.98C306.457,1155.25 306.461,1154.78 306.461,1154.58C306.461,1152.39 306.262,1150.85 305.863,1149.95C305.324,1148.74 304.523,1148.13 303.461,1148.13C302.469,1148.13 301.736,1148.58 301.264,1149.46C300.791,1150.35 300.441,1151.91 300.215,1154.16L298.152,1153.44C298.34,1151.2 298.648,1149.38 299.078,1148C299.508,1146.62 300.129,1145.55 300.941,1144.8C301.754,1144.06 302.695,1143.68 303.766,1143.68C304.828,1143.68 305.691,1144 306.355,1144.64C307.02,1145.28 307.508,1146.08 307.82,1147.04C308.133,1148.01 308.352,1149.23 308.477,1150.7C308.547,1151.61 308.582,1153.27 308.582,1155.65L308.582,1162.82C308.582,1167.81 308.627,1170.97 308.717,1172.29C308.807,1173.62 308.984,1174.88 309.25,1176.1L307.047,1176.1C306.828,1174.98 306.687,1173.68 306.625,1172.19ZM306.449,1160.19C305.684,1160.99 304.535,1161.66 303.004,1162.22C302.137,1162.54 301.523,1162.9 301.164,1163.29C300.805,1163.69 300.527,1164.27 300.332,1165.04C300.137,1165.81 300.039,1166.66 300.039,1167.59C300.039,1169.02 300.252,1170.22 300.678,1171.17C301.104,1172.13 301.727,1172.61 302.547,1172.61C303.359,1172.61 304.082,1172.15 304.715,1171.25C305.348,1170.34 305.812,1169.1 306.109,1167.53C306.336,1166.32 306.449,1164.53 306.449,1162.16L306.449,1160.19Z" style="fill-rule:nonzero;"/>
                <path d="M314.148,1176.1L310.34,1144.4L312.52,1144.4L314.5,1162.7L315.238,1169.5C315.27,1169.16 315.484,1166.98 315.883,1162.96L317.863,1144.4L320.031,1144.4L321.895,1162.79L322.516,1168.85L323.23,1162.73L325.363,1144.4L327.414,1144.4L323.523,1176.1L321.332,1176.1L319.352,1157.12L318.871,1151.71L316.352,1176.1L314.148,1176.1Z" style="fill-rule:nonzero;"/>
                <path d="M337.305,1172.19C336.523,1173.88 335.771,1175.07 335.049,1175.77C334.326,1176.46 333.551,1176.81 332.723,1176.81C331.355,1176.81 330.305,1175.96 329.57,1174.26C328.836,1172.56 328.469,1170.39 328.469,1167.74C328.469,1166.19 328.607,1164.77 328.885,1163.49C329.162,1162.2 329.525,1161.17 329.975,1160.4C330.424,1159.62 330.93,1159.04 331.492,1158.64C331.906,1158.36 332.531,1158.09 333.367,1157.83C335.07,1157.31 336.324,1156.7 337.129,1155.98C337.137,1155.25 337.141,1154.78 337.141,1154.58C337.141,1152.39 336.941,1150.85 336.543,1149.95C336.004,1148.74 335.203,1148.13 334.141,1148.13C333.148,1148.13 332.416,1148.58 331.943,1149.46C331.471,1150.35 331.121,1151.91 330.895,1154.16L328.832,1153.44C329.02,1151.2 329.328,1149.38 329.758,1148C330.187,1146.62 330.809,1145.55 331.621,1144.8C332.434,1144.06 333.375,1143.68 334.445,1143.68C335.508,1143.68 336.371,1144 337.035,1144.64C337.699,1145.28 338.187,1146.08 338.5,1147.04C338.812,1148.01 339.031,1149.23 339.156,1150.7C339.227,1151.61 339.262,1153.27 339.262,1155.65L339.262,1162.82C339.262,1167.81 339.307,1170.97 339.396,1172.29C339.486,1173.62 339.664,1174.88 339.93,1176.1L337.727,1176.1C337.508,1174.98 337.367,1173.68 337.305,1172.19ZM337.129,1160.19C336.363,1160.99 335.215,1161.66 333.684,1162.22C332.816,1162.54 332.203,1162.9 331.844,1163.29C331.484,1163.69 331.207,1164.27 331.012,1165.04C330.816,1165.81 330.719,1166.66 330.719,1167.59C330.719,1169.02 330.932,1170.22 331.357,1171.17C331.783,1172.13 332.406,1172.61 333.227,1172.61C334.039,1172.61 334.762,1172.15 335.395,1171.25C336.027,1170.34 336.492,1169.1 336.789,1167.53C337.016,1166.32 337.129,1164.53 337.129,1162.16L337.129,1160.19Z" style="fill-rule:nonzero;"/>
                <path d="M342.531,1188.24L342.531,1144.4L344.453,1144.4L344.453,1148.52C344.906,1146.91 345.418,1145.7 345.988,1144.89C346.559,1144.09 347.25,1143.68 348.062,1143.68C349.125,1143.68 350.062,1144.38 350.875,1145.77C351.687,1147.17 352.301,1149.13 352.715,1151.67C353.129,1154.21 353.336,1156.99 353.336,1160.01C353.336,1163.25 353.107,1166.17 352.65,1168.77C352.193,1171.37 351.529,1173.36 350.658,1174.74C349.787,1176.12 348.871,1176.81 347.91,1176.81C347.207,1176.81 346.576,1176.44 346.018,1175.68C345.459,1174.92 345,1173.97 344.641,1172.81L344.641,1188.24L342.531,1188.24ZM344.441,1160.43C344.441,1164.51 344.766,1167.52 345.414,1169.47C346.062,1171.42 346.848,1172.4 347.77,1172.4C348.707,1172.4 349.51,1171.39 350.178,1169.37C350.846,1167.35 351.18,1164.22 351.18,1159.98C351.18,1155.94 350.854,1152.92 350.201,1150.91C349.549,1148.9 348.77,1147.89 347.863,1147.89C346.965,1147.89 346.17,1148.96 345.479,1151.1C344.787,1153.24 344.441,1156.35 344.441,1160.43Z" style="fill-rule:nonzero;"/>
                <path d="M355.094,1160.25C355.094,1154.38 355.734,1150.03 357.016,1147.21C358.086,1144.86 359.391,1143.68 360.93,1143.68C362.641,1143.68 364.039,1145.11 365.125,1147.97C366.211,1150.82 366.754,1154.77 366.754,1159.8C366.754,1163.88 366.514,1167.09 366.033,1169.43C365.553,1171.77 364.854,1173.58 363.936,1174.87C363.018,1176.17 362.016,1176.81 360.93,1176.81C359.187,1176.81 357.779,1175.39 356.705,1172.55C355.631,1169.7 355.094,1165.6 355.094,1160.25ZM357.262,1160.25C357.262,1164.31 357.609,1167.35 358.305,1169.37C359,1171.39 359.875,1172.4 360.93,1172.4C361.977,1172.4 362.848,1171.38 363.543,1169.35C364.238,1167.32 364.586,1164.23 364.586,1160.07C364.586,1156.15 364.236,1153.18 363.537,1151.16C362.838,1149.14 361.969,1148.13 360.93,1148.13C359.875,1148.13 359,1149.14 358.305,1151.15C357.609,1153.16 357.262,1156.19 357.262,1160.25Z" style="fill-rule:nonzero;"/>
                <path d="M368.383,1166.64L370.469,1165.8C370.586,1167.93 370.912,1169.56 371.447,1170.69C371.982,1171.83 372.73,1172.4 373.691,1172.4C374.66,1172.4 375.379,1171.89 375.848,1170.89C376.316,1169.88 376.551,1168.71 376.551,1167.35C376.551,1166.14 376.344,1165.18 375.93,1164.49C375.641,1164.01 374.922,1163.4 373.773,1162.67C372.227,1161.67 371.154,1160.81 370.557,1160.09C369.959,1159.36 369.506,1158.35 369.197,1157.07C368.889,1155.79 368.734,1154.37 368.734,1152.82C368.734,1151.4 368.861,1150.1 369.115,1148.89C369.369,1147.69 369.715,1146.69 370.152,1145.89C370.48,1145.28 370.928,1144.75 371.494,1144.33C372.061,1143.9 372.668,1143.68 373.316,1143.68C374.293,1143.68 375.15,1144.04 375.889,1144.76C376.627,1145.48 377.172,1146.45 377.523,1147.67C377.875,1148.89 378.117,1150.53 378.25,1152.58L376.187,1153.3C376.094,1151.66 375.822,1150.39 375.373,1149.48C374.924,1148.56 374.289,1148.1 373.469,1148.1C372.5,1148.1 371.809,1148.51 371.395,1149.33C370.98,1150.14 370.773,1151.1 370.773,1152.19C370.773,1152.89 370.859,1153.51 371.031,1154.07C371.203,1154.65 371.473,1155.13 371.84,1155.5C372.051,1155.7 372.672,1156.16 373.703,1156.88C375.195,1157.89 376.236,1158.72 376.826,1159.37C377.416,1160.02 377.879,1160.96 378.215,1162.19C378.551,1163.42 378.719,1164.95 378.719,1166.79C378.719,1168.58 378.514,1170.26 378.104,1171.84C377.693,1173.43 377.102,1174.65 376.328,1175.52C375.555,1176.38 374.68,1176.81 373.703,1176.81C372.086,1176.81 370.854,1175.96 370.006,1174.25C369.158,1172.54 368.617,1170 368.383,1166.64Z" style="fill-rule:nonzero;"/>
                <path d="M479.934,1171.23C479.426,1172.73 478.857,1173.92 478.229,1174.83C477.6,1175.73 476.969,1176.19 476.336,1176.19C475.641,1176.19 474.965,1175.67 474.309,1174.63C473.652,1173.6 473.119,1172.01 472.709,1169.86C472.299,1167.71 472.094,1165.35 472.094,1162.79C472.094,1159.62 472.412,1156.45 473.049,1153.28C473.686,1150.11 474.477,1147.72 475.422,1146.13C476.367,1144.54 477.285,1143.75 478.176,1143.75C478.855,1143.75 479.504,1144.2 480.121,1145.1C480.738,1146.01 481.27,1147.39 481.715,1149.24L482.113,1144.61L484.211,1144.61L482.523,1164.64C482.289,1167.42 482.172,1168.96 482.172,1169.26C482.172,1169.8 482.252,1170.26 482.412,1170.65C482.572,1171.04 482.766,1171.23 482.992,1171.23C483.406,1171.23 483.949,1170.63 484.621,1169.41C485.512,1167.82 486.217,1165.69 486.736,1163.01C487.256,1160.33 487.516,1157.57 487.516,1154.73C487.516,1151.4 487.182,1148.3 486.514,1145.42C485.846,1142.53 484.85,1140.22 483.525,1138.49C482.201,1136.76 480.738,1135.89 479.137,1135.89C477.309,1135.89 475.639,1136.99 474.127,1139.16C472.615,1141.34 471.443,1144.47 470.611,1148.54C469.779,1152.6 469.363,1156.97 469.363,1161.62C469.363,1166.5 469.779,1170.69 470.611,1174.22C471.443,1177.74 472.646,1180.34 474.221,1182.02C475.795,1183.7 477.539,1184.54 479.453,1184.54C481.5,1184.54 483.215,1183.67 484.598,1181.92C485.98,1180.17 487.016,1178.04 487.703,1175.53L489.824,1175.53C489.426,1177.62 488.742,1179.75 487.773,1181.92C486.805,1184.09 485.652,1185.8 484.316,1187.07C482.98,1188.33 481.371,1188.96 479.488,1188.96C477.754,1188.96 476.154,1188.39 474.689,1187.26C473.225,1186.12 471.977,1184.42 470.945,1182.14C469.914,1179.86 469.137,1177.24 468.613,1174.28C467.957,1170.52 467.629,1166.46 467.629,1162.1C467.629,1157.25 468.02,1152.62 468.801,1148.22C469.754,1142.83 471.107,1138.7 472.861,1135.84C474.615,1132.97 476.742,1131.54 479.242,1131.54C481.18,1131.54 482.92,1132.55 484.463,1134.57C486.006,1136.59 487.223,1139.6 488.113,1143.6C488.871,1147.04 489.25,1150.78 489.25,1154.82C489.25,1160.59 488.453,1165.71 486.859,1170.19C485.437,1174.21 483.883,1176.22 482.195,1176.22C481.656,1176.22 481.221,1176.01 480.889,1175.59C480.557,1175.17 480.312,1174.58 480.156,1173.8C480.055,1173.3 479.98,1172.45 479.934,1171.23ZM474.262,1163.14C474.262,1165.87 474.516,1167.99 475.023,1169.5C475.531,1171.01 476.113,1171.77 476.77,1171.77C477.207,1171.77 477.668,1171.44 478.152,1170.77C478.637,1170.1 479.1,1169.11 479.541,1167.8C479.982,1166.49 480.344,1164.82 480.625,1162.8C480.906,1160.78 481.047,1158.76 481.047,1156.73C481.047,1154.02 480.783,1151.92 480.256,1150.43C479.729,1148.94 479.086,1148.19 478.328,1148.19C477.828,1148.19 477.357,1148.52 476.916,1149.16C476.475,1149.81 476.047,1150.85 475.633,1152.28C475.219,1153.71 474.887,1155.45 474.637,1157.5C474.387,1159.55 474.262,1161.43 474.262,1163.14Z" style="fill-rule:nonzero;"/>
                <path d="M492.285,1176.1L492.285,1132.34L494.395,1132.34L494.395,1157.3L499.387,1144.4L502.117,1144.4L497.359,1156.16L502.598,1176.1L499.996,1176.1L495.883,1159.89L494.395,1163.53L494.395,1176.1L492.285,1176.1Z" style="fill-rule:nonzero;"/>
                <path d="M503.488,1160.25C503.488,1154.38 504.129,1150.03 505.41,1147.21C506.48,1144.86 507.785,1143.68 509.324,1143.68C511.035,1143.68 512.434,1145.11 513.52,1147.97C514.605,1150.82 515.148,1154.77 515.148,1159.8C515.148,1163.88 514.908,1167.09 514.428,1169.43C513.947,1171.77 513.248,1173.58 512.33,1174.87C511.412,1176.17 510.41,1176.81 509.324,1176.81C507.582,1176.81 506.174,1175.39 505.1,1172.55C504.025,1169.7 503.488,1165.6 503.488,1160.25ZM505.656,1160.25C505.656,1164.31 506.004,1167.35 506.699,1169.37C507.395,1171.39 508.27,1172.4 509.324,1172.4C510.371,1172.4 511.242,1171.38 511.937,1169.35C512.633,1167.32 512.98,1164.23 512.98,1160.07C512.98,1156.15 512.631,1153.18 511.932,1151.16C511.232,1149.14 510.363,1148.13 509.324,1148.13C508.27,1148.13 507.395,1149.14 506.699,1151.15C506.004,1153.16 505.656,1156.19 505.656,1160.25Z" style="fill-rule:nonzero;"/>
                <path d="M517.598,1176.1L517.598,1144.4L519.496,1144.4L519.496,1149.21C519.98,1146.96 520.428,1145.48 520.838,1144.76C521.248,1144.04 521.699,1143.68 522.191,1143.68C522.902,1143.68 523.625,1144.26 524.359,1145.42L523.633,1150.4C523.117,1149.62 522.602,1149.24 522.086,1149.24C521.625,1149.24 521.211,1149.59 520.844,1150.3C520.477,1151 520.215,1151.98 520.059,1153.24C519.824,1155.15 519.707,1157.24 519.707,1159.5L519.707,1176.1L517.598,1176.1Z" style="fill-rule:nonzero;"/>
                <path d="M533.734,1172.19C532.953,1173.88 532.201,1175.07 531.479,1175.77C530.756,1176.46 529.98,1176.81 529.152,1176.81C527.785,1176.81 526.734,1175.96 526,1174.26C525.266,1172.56 524.898,1170.39 524.898,1167.74C524.898,1166.19 525.037,1164.77 525.314,1163.49C525.592,1162.2 525.955,1161.17 526.404,1160.4C526.854,1159.62 527.359,1159.04 527.922,1158.64C528.336,1158.36 528.961,1158.09 529.797,1157.83C531.5,1157.31 532.754,1156.7 533.559,1155.98C533.566,1155.25 533.57,1154.78 533.57,1154.58C533.57,1152.39 533.371,1150.85 532.973,1149.95C532.434,1148.74 531.633,1148.13 530.57,1148.13C529.578,1148.13 528.846,1148.58 528.373,1149.46C527.9,1150.35 527.551,1151.91 527.324,1154.16L525.262,1153.44C525.449,1151.2 525.758,1149.38 526.187,1148C526.617,1146.62 527.238,1145.55 528.051,1144.8C528.863,1144.06 529.805,1143.68 530.875,1143.68C531.937,1143.68 532.801,1144 533.465,1144.64C534.129,1145.28 534.617,1146.08 534.93,1147.04C535.242,1148.01 535.461,1149.23 535.586,1150.7C535.656,1151.61 535.691,1153.27 535.691,1155.65L535.691,1162.82C535.691,1167.81 535.736,1170.97 535.826,1172.29C535.916,1173.62 536.094,1174.88 536.359,1176.1L534.156,1176.1C533.937,1174.98 533.797,1173.68 533.734,1172.19ZM533.559,1160.19C532.793,1160.99 531.645,1161.66 530.113,1162.22C529.246,1162.54 528.633,1162.9 528.273,1163.29C527.914,1163.69 527.637,1164.27 527.441,1165.04C527.246,1165.81 527.148,1166.66 527.148,1167.59C527.148,1169.02 527.361,1170.22 527.787,1171.17C528.213,1172.13 528.836,1172.61 529.656,1172.61C530.469,1172.61 531.191,1172.15 531.824,1171.25C532.457,1170.34 532.922,1169.1 533.219,1167.53C533.445,1166.32 533.559,1164.53 533.559,1162.16L533.559,1160.19Z" style="fill-rule:nonzero;"/>
                <path d="M538.961,1176.1L538.961,1144.4L540.859,1144.4L540.859,1148.91C541.773,1145.43 543.094,1143.68 544.82,1143.68C545.57,1143.68 546.26,1144.03 546.889,1144.71C547.518,1145.4 547.988,1146.3 548.301,1147.42C548.613,1148.53 548.832,1149.85 548.957,1151.38C549.035,1152.38 549.074,1154.12 549.074,1156.61L549.074,1176.1L546.965,1176.1L546.965,1156.82C546.965,1154.63 546.883,1152.99 546.719,1151.91C546.555,1150.82 546.264,1149.96 545.846,1149.31C545.428,1148.66 544.937,1148.34 544.375,1148.34C543.477,1148.34 542.701,1149.07 542.049,1150.52C541.396,1151.97 541.07,1154.73 541.07,1158.79L541.07,1176.1L538.961,1176.1Z" style="fill-rule:nonzero;"/>
                <rect x="550.363" y="1184.36" width="13.98" height="3.88" style="fill-rule:nonzero;"/>
                <path d="M565.645,1138.58L565.645,1132.34L567.754,1132.34L567.754,1138.58L565.645,1138.58ZM562.973,1188.39L563.371,1183.83C563.793,1184.11 564.125,1184.25 564.367,1184.25C564.797,1184.25 565.117,1183.88 565.328,1183.16C565.539,1182.43 565.645,1180.61 565.645,1177.71L565.645,1144.4L567.754,1144.4L567.754,1177.83C567.754,1181.73 567.555,1184.44 567.156,1185.98C566.648,1187.97 565.805,1188.96 564.625,1188.96C564.055,1188.96 563.504,1188.77 562.973,1188.39Z" style="fill-rule:nonzero;"/>
                <path d="M579.109,1172.19C578.328,1173.88 577.576,1175.07 576.854,1175.77C576.131,1176.46 575.355,1176.81 574.527,1176.81C573.16,1176.81 572.109,1175.96 571.375,1174.26C570.641,1172.56 570.273,1170.39 570.273,1167.74C570.273,1166.19 570.412,1164.77 570.689,1163.49C570.967,1162.2 571.33,1161.17 571.779,1160.4C572.229,1159.62 572.734,1159.04 573.297,1158.64C573.711,1158.36 574.336,1158.09 575.172,1157.83C576.875,1157.31 578.129,1156.7 578.934,1155.98C578.941,1155.25 578.945,1154.78 578.945,1154.58C578.945,1152.39 578.746,1150.85 578.348,1149.95C577.809,1148.74 577.008,1148.13 575.945,1148.13C574.953,1148.13 574.221,1148.58 573.748,1149.46C573.275,1150.35 572.926,1151.91 572.699,1154.16L570.637,1153.44C570.824,1151.2 571.133,1149.38 571.562,1148C571.992,1146.62 572.613,1145.55 573.426,1144.8C574.238,1144.06 575.18,1143.68 576.25,1143.68C577.312,1143.68 578.176,1144 578.84,1144.64C579.504,1145.28 579.992,1146.08 580.305,1147.04C580.617,1148.01 580.836,1149.23 580.961,1150.7C581.031,1151.61 581.066,1153.27 581.066,1155.65L581.066,1162.82C581.066,1167.81 581.111,1170.97 581.201,1172.29C581.291,1173.62 581.469,1174.88 581.734,1176.1L579.531,1176.1C579.312,1174.98 579.172,1173.68 579.109,1172.19ZM578.934,1160.19C578.168,1160.99 577.02,1161.66 575.488,1162.22C574.621,1162.54 574.008,1162.9 573.648,1163.29C573.289,1163.69 573.012,1164.27 572.816,1165.04C572.621,1165.81 572.523,1166.66 572.523,1167.59C572.523,1169.02 572.736,1170.22 573.162,1171.17C573.588,1172.13 574.211,1172.61 575.031,1172.61C575.844,1172.61 576.566,1172.15 577.199,1171.25C577.832,1170.34 578.297,1169.1 578.594,1167.53C578.82,1166.32 578.934,1164.53 578.934,1162.16L578.934,1160.19Z" style="fill-rule:nonzero;"/>
                <path d="M586.633,1176.1L582.824,1144.4L585.004,1144.4L586.984,1162.7L587.723,1169.5C587.754,1169.16 587.969,1166.98 588.367,1162.96L590.348,1144.4L592.516,1144.4L594.379,1162.79L595,1168.85L595.715,1162.73L597.848,1144.4L599.898,1144.4L596.008,1176.1L593.816,1176.1L591.836,1157.12L591.355,1151.71L588.836,1176.1L586.633,1176.1Z" style="fill-rule:nonzero;"/>
                <path d="M609.789,1172.19C609.008,1173.88 608.256,1175.07 607.533,1175.77C606.811,1176.46 606.035,1176.81 605.207,1176.81C603.84,1176.81 602.789,1175.96 602.055,1174.26C601.32,1172.56 600.953,1170.39 600.953,1167.74C600.953,1166.19 601.092,1164.77 601.369,1163.49C601.646,1162.2 602.01,1161.17 602.459,1160.4C602.908,1159.62 603.414,1159.04 603.977,1158.64C604.391,1158.36 605.016,1158.09 605.852,1157.83C607.555,1157.31 608.809,1156.7 609.613,1155.98C609.621,1155.25 609.625,1154.78 609.625,1154.58C609.625,1152.39 609.426,1150.85 609.027,1149.95C608.488,1148.74 607.687,1148.13 606.625,1148.13C605.633,1148.13 604.9,1148.58 604.428,1149.46C603.955,1150.35 603.605,1151.91 603.379,1154.16L601.316,1153.44C601.504,1151.2 601.812,1149.38 602.242,1148C602.672,1146.62 603.293,1145.55 604.105,1144.8C604.918,1144.06 605.859,1143.68 606.93,1143.68C607.992,1143.68 608.855,1144 609.52,1144.64C610.184,1145.28 610.672,1146.08 610.984,1147.04C611.297,1148.01 611.516,1149.23 611.641,1150.7C611.711,1151.61 611.746,1153.27 611.746,1155.65L611.746,1162.82C611.746,1167.81 611.791,1170.97 611.881,1172.29C611.971,1173.62 612.148,1174.88 612.414,1176.1L610.211,1176.1C609.992,1174.98 609.852,1173.68 609.789,1172.19ZM609.613,1160.19C608.848,1160.99 607.699,1161.66 606.168,1162.22C605.301,1162.54 604.687,1162.9 604.328,1163.29C603.969,1163.69 603.691,1164.27 603.496,1165.04C603.301,1165.81 603.203,1166.66 603.203,1167.59C603.203,1169.02 603.416,1170.22 603.842,1171.17C604.268,1172.13 604.891,1172.61 605.711,1172.61C606.523,1172.61 607.246,1172.15 607.879,1171.25C608.512,1170.34 608.977,1169.1 609.273,1167.53C609.5,1166.32 609.613,1164.53 609.613,1162.16L609.613,1160.19Z" style="fill-rule:nonzero;"/>
                <path d="M615.016,1188.24L615.016,1144.4L616.937,1144.4L616.937,1148.52C617.391,1146.91 617.902,1145.7 618.473,1144.89C619.043,1144.09 619.734,1143.68 620.547,1143.68C621.609,1143.68 622.547,1144.38 623.359,1145.77C624.172,1147.17 624.785,1149.13 625.199,1151.67C625.613,1154.21 625.82,1156.99 625.82,1160.01C625.82,1163.25 625.592,1166.17 625.135,1168.77C624.678,1171.37 624.014,1173.36 623.143,1174.74C622.271,1176.12 621.355,1176.81 620.395,1176.81C619.691,1176.81 619.061,1176.44 618.502,1175.68C617.943,1174.92 617.484,1173.97 617.125,1172.81L617.125,1188.24L615.016,1188.24ZM616.926,1160.43C616.926,1164.51 617.25,1167.52 617.898,1169.47C618.547,1171.42 619.332,1172.4 620.254,1172.4C621.191,1172.4 621.994,1171.39 622.662,1169.37C623.33,1167.35 623.664,1164.22 623.664,1159.98C623.664,1155.94 623.338,1152.92 622.686,1150.91C622.033,1148.9 621.254,1147.89 620.348,1147.89C619.449,1147.89 618.654,1148.96 617.963,1151.1C617.271,1153.24 616.926,1156.35 616.926,1160.43Z" style="fill-rule:nonzero;"/>
                <path d="M627.578,1160.25C627.578,1154.38 628.219,1150.03 629.5,1147.21C630.57,1144.86 631.875,1143.68 633.414,1143.68C635.125,1143.68 636.523,1145.11 637.609,1147.97C638.695,1150.82 639.238,1154.77 639.238,1159.8C639.238,1163.88 638.998,1167.09 638.518,1169.43C638.037,1171.77 637.338,1173.58 636.42,1174.87C635.502,1176.17 634.5,1176.81 633.414,1176.81C631.672,1176.81 630.264,1175.39 629.189,1172.55C628.115,1169.7 627.578,1165.6 627.578,1160.25ZM629.746,1160.25C629.746,1164.31 630.094,1167.35 630.789,1169.37C631.484,1171.39 632.359,1172.4 633.414,1172.4C634.461,1172.4 635.332,1171.38 636.027,1169.35C636.723,1167.32 637.07,1164.23 637.07,1160.07C637.07,1156.15 636.721,1153.18 636.021,1151.16C635.322,1149.14 634.453,1148.13 633.414,1148.13C632.359,1148.13 631.484,1149.14 630.789,1151.15C630.094,1153.16 629.746,1156.19 629.746,1160.25Z" style="fill-rule:nonzero;"/>
                <path d="M640.867,1166.64L642.953,1165.8C643.07,1167.93 643.396,1169.56 643.932,1170.69C644.467,1171.83 645.215,1172.4 646.176,1172.4C647.145,1172.4 647.863,1171.89 648.332,1170.89C648.801,1169.88 649.035,1168.71 649.035,1167.35C649.035,1166.14 648.828,1165.18 648.414,1164.49C648.125,1164.01 647.406,1163.4 646.258,1162.67C644.711,1161.67 643.639,1160.81 643.041,1160.09C642.443,1159.36 641.99,1158.35 641.682,1157.07C641.373,1155.79 641.219,1154.37 641.219,1152.82C641.219,1151.4 641.346,1150.1 641.6,1148.89C641.854,1147.69 642.199,1146.69 642.637,1145.89C642.965,1145.28 643.412,1144.75 643.979,1144.33C644.545,1143.9 645.152,1143.68 645.801,1143.68C646.777,1143.68 647.635,1144.04 648.373,1144.76C649.111,1145.48 649.656,1146.45 650.008,1147.67C650.359,1148.89 650.602,1150.53 650.734,1152.58L648.672,1153.3C648.578,1151.66 648.307,1150.39 647.857,1149.48C647.408,1148.56 646.773,1148.1 645.953,1148.1C644.984,1148.1 644.293,1148.51 643.879,1149.33C643.465,1150.14 643.258,1151.1 643.258,1152.19C643.258,1152.89 643.344,1153.51 643.516,1154.07C643.687,1154.65 643.957,1155.13 644.324,1155.5C644.535,1155.7 645.156,1156.16 646.187,1156.88C647.68,1157.89 648.721,1158.72 649.311,1159.37C649.9,1160.02 650.363,1160.96 650.699,1162.19C651.035,1163.42 651.203,1164.95 651.203,1166.79C651.203,1168.58 650.998,1170.26 650.588,1171.84C650.178,1173.43 649.586,1174.65 648.812,1175.52C648.039,1176.38 647.164,1176.81 646.187,1176.81C644.57,1176.81 643.338,1175.96 642.49,1174.25C641.643,1172.54 641.102,1170 640.867,1166.64Z" style="fill-rule:nonzero;"/>
                <path d="M745.75,1171.23C745.242,1172.73 744.674,1173.92 744.045,1174.83C743.416,1175.73 742.785,1176.19 742.152,1176.19C741.457,1176.19 740.781,1175.67 740.125,1174.63C739.469,1173.6 738.936,1172.01 738.525,1169.86C738.115,1167.71 737.91,1165.35 737.91,1162.79C737.91,1159.62 738.229,1156.45 738.865,1153.28C739.502,1150.11 740.293,1147.72 741.238,1146.13C742.184,1144.54 743.102,1143.75 743.992,1143.75C744.672,1143.75 745.32,1144.2 745.937,1145.1C746.555,1146.01 747.086,1147.39 747.531,1149.24L747.93,1144.61L750.027,1144.61L748.34,1164.64C748.105,1167.42 747.988,1168.96 747.988,1169.26C747.988,1169.8 748.068,1170.26 748.229,1170.65C748.389,1171.04 748.582,1171.23 748.809,1171.23C749.223,1171.23 749.766,1170.63 750.437,1169.41C751.328,1167.82 752.033,1165.69 752.553,1163.01C753.072,1160.33 753.332,1157.57 753.332,1154.73C753.332,1151.4 752.998,1148.3 752.33,1145.42C751.662,1142.53 750.666,1140.22 749.342,1138.49C748.018,1136.76 746.555,1135.89 744.953,1135.89C743.125,1135.89 741.455,1136.99 739.943,1139.16C738.432,1141.34 737.26,1144.47 736.428,1148.54C735.596,1152.6 735.18,1156.97 735.18,1161.62C735.18,1166.5 735.596,1170.69 736.428,1174.22C737.26,1177.74 738.463,1180.34 740.037,1182.02C741.611,1183.7 743.355,1184.54 745.27,1184.54C747.316,1184.54 749.031,1183.67 750.414,1181.92C751.797,1180.17 752.832,1178.04 753.52,1175.53L755.641,1175.53C755.242,1177.62 754.559,1179.75 753.59,1181.92C752.621,1184.09 751.469,1185.8 750.133,1187.07C748.797,1188.33 747.187,1188.96 745.305,1188.96C743.57,1188.96 741.971,1188.39 740.506,1187.26C739.041,1186.12 737.793,1184.42 736.762,1182.14C735.73,1179.86 734.953,1177.24 734.43,1174.28C733.773,1170.52 733.445,1166.46 733.445,1162.1C733.445,1157.25 733.836,1152.62 734.617,1148.22C735.57,1142.83 736.924,1138.7 738.678,1135.84C740.432,1132.97 742.559,1131.54 745.059,1131.54C746.996,1131.54 748.736,1132.55 750.279,1134.57C751.822,1136.59 753.039,1139.6 753.93,1143.6C754.687,1147.04 755.066,1150.78 755.066,1154.82C755.066,1160.59 754.27,1165.71 752.676,1170.19C751.254,1174.21 749.699,1176.22 748.012,1176.22C747.473,1176.22 747.037,1176.01 746.705,1175.59C746.373,1175.17 746.129,1174.58 745.973,1173.8C745.871,1173.3 745.797,1172.45 745.75,1171.23ZM740.078,1163.14C740.078,1165.87 740.332,1167.99 740.84,1169.5C741.348,1171.01 741.93,1171.77 742.586,1171.77C743.023,1171.77 743.484,1171.44 743.969,1170.77C744.453,1170.1 744.916,1169.11 745.357,1167.8C745.799,1166.49 746.16,1164.82 746.441,1162.8C746.723,1160.78 746.863,1158.76 746.863,1156.73C746.863,1154.02 746.6,1151.92 746.072,1150.43C745.545,1148.94 744.902,1148.19 744.145,1148.19C743.645,1148.19 743.174,1148.52 742.732,1149.16C742.291,1149.81 741.863,1150.85 741.449,1152.28C741.035,1153.71 740.703,1155.45 740.453,1157.5C740.203,1159.55 740.078,1161.43 740.078,1163.14Z" style="fill-rule:nonzero;"/>
                <path d="M758.078,1138.58L758.078,1132.34L760.187,1132.34L760.187,1138.58L758.078,1138.58ZM755.406,1188.39L755.805,1183.83C756.227,1184.11 756.559,1184.25 756.801,1184.25C757.23,1184.25 757.551,1183.88 757.762,1183.16C757.973,1182.43 758.078,1180.61 758.078,1177.71L758.078,1144.4L760.187,1144.4L760.187,1177.83C760.187,1181.73 759.988,1184.44 759.59,1185.98C759.082,1187.97 758.238,1188.96 757.059,1188.96C756.488,1188.96 755.937,1188.77 755.406,1188.39Z" style="fill-rule:nonzero;"/>
                <path d="M771.543,1172.19C770.762,1173.88 770.01,1175.07 769.287,1175.77C768.564,1176.46 767.789,1176.81 766.961,1176.81C765.594,1176.81 764.543,1175.96 763.809,1174.26C763.074,1172.56 762.707,1170.39 762.707,1167.74C762.707,1166.19 762.846,1164.77 763.123,1163.49C763.4,1162.2 763.764,1161.17 764.213,1160.4C764.662,1159.62 765.168,1159.04 765.73,1158.64C766.145,1158.36 766.77,1158.09 767.605,1157.83C769.309,1157.31 770.562,1156.7 771.367,1155.98C771.375,1155.25 771.379,1154.78 771.379,1154.58C771.379,1152.39 771.18,1150.85 770.781,1149.95C770.242,1148.74 769.441,1148.13 768.379,1148.13C767.387,1148.13 766.654,1148.58 766.182,1149.46C765.709,1150.35 765.359,1151.91 765.133,1154.16L763.07,1153.44C763.258,1151.2 763.566,1149.38 763.996,1148C764.426,1146.62 765.047,1145.55 765.859,1144.8C766.672,1144.06 767.613,1143.68 768.684,1143.68C769.746,1143.68 770.609,1144 771.273,1144.64C771.937,1145.28 772.426,1146.08 772.738,1147.04C773.051,1148.01 773.27,1149.23 773.395,1150.7C773.465,1151.61 773.5,1153.27 773.5,1155.65L773.5,1162.82C773.5,1167.81 773.545,1170.97 773.635,1172.29C773.725,1173.62 773.902,1174.88 774.168,1176.1L771.965,1176.1C771.746,1174.98 771.605,1173.68 771.543,1172.19ZM771.367,1160.19C770.602,1160.99 769.453,1161.66 767.922,1162.22C767.055,1162.54 766.441,1162.9 766.082,1163.29C765.723,1163.69 765.445,1164.27 765.25,1165.04C765.055,1165.81 764.957,1166.66 764.957,1167.59C764.957,1169.02 765.17,1170.22 765.596,1171.17C766.021,1172.13 766.645,1172.61 767.465,1172.61C768.277,1172.61 769,1172.15 769.633,1171.25C770.266,1170.34 770.73,1169.1 771.027,1167.53C771.254,1166.32 771.367,1164.53 771.367,1162.16L771.367,1160.19Z" style="fill-rule:nonzero;"/>
                <path d="M779.066,1176.1L775.258,1144.4L777.437,1144.4L779.418,1162.7L780.156,1169.5C780.187,1169.16 780.402,1166.98 780.801,1162.96L782.781,1144.4L784.949,1144.4L786.812,1162.79L787.434,1168.85L788.148,1162.73L790.281,1144.4L792.332,1144.4L788.441,1176.1L786.25,1176.1L784.27,1157.12L783.789,1151.71L781.27,1176.1L779.066,1176.1Z" style="fill-rule:nonzero;"/>
                <path d="M802.223,1172.19C801.441,1173.88 800.689,1175.07 799.967,1175.77C799.244,1176.46 798.469,1176.81 797.641,1176.81C796.273,1176.81 795.223,1175.96 794.488,1174.26C793.754,1172.56 793.387,1170.39 793.387,1167.74C793.387,1166.19 793.525,1164.77 793.803,1163.49C794.08,1162.2 794.443,1161.17 794.893,1160.4C795.342,1159.62 795.848,1159.04 796.41,1158.64C796.824,1158.36 797.449,1158.09 798.285,1157.83C799.988,1157.31 801.242,1156.7 802.047,1155.98C802.055,1155.25 802.059,1154.78 802.059,1154.58C802.059,1152.39 801.859,1150.85 801.461,1149.95C800.922,1148.74 800.121,1148.13 799.059,1148.13C798.066,1148.13 797.334,1148.58 796.861,1149.46C796.389,1150.35 796.039,1151.91 795.812,1154.16L793.75,1153.44C793.937,1151.2 794.246,1149.38 794.676,1148C795.105,1146.62 795.727,1145.55 796.539,1144.8C797.352,1144.06 798.293,1143.68 799.363,1143.68C800.426,1143.68 801.289,1144 801.953,1144.64C802.617,1145.28 803.105,1146.08 803.418,1147.04C803.73,1148.01 803.949,1149.23 804.074,1150.7C804.145,1151.61 804.18,1153.27 804.18,1155.65L804.18,1162.82C804.18,1167.81 804.225,1170.97 804.314,1172.29C804.404,1173.62 804.582,1174.88 804.848,1176.1L802.645,1176.1C802.426,1174.98 802.285,1173.68 802.223,1172.19ZM802.047,1160.19C801.281,1160.99 800.133,1161.66 798.602,1162.22C797.734,1162.54 797.121,1162.9 796.762,1163.29C796.402,1163.69 796.125,1164.27 795.93,1165.04C795.734,1165.81 795.637,1166.66 795.637,1167.59C795.637,1169.02 795.85,1170.22 796.275,1171.17C796.701,1172.13 797.324,1172.61 798.145,1172.61C798.957,1172.61 799.68,1172.15 800.312,1171.25C800.945,1170.34 801.41,1169.1 801.707,1167.53C801.934,1166.32 802.047,1164.53 802.047,1162.16L802.047,1160.19Z" style="fill-rule:nonzero;"/>
                <path d="M807.449,1188.24L807.449,1144.4L809.371,1144.4L809.371,1148.52C809.824,1146.91 810.336,1145.7 810.906,1144.89C811.477,1144.09 812.168,1143.68 812.98,1143.68C814.043,1143.68 814.98,1144.38 815.793,1145.77C816.605,1147.17 817.219,1149.13 817.633,1151.67C818.047,1154.21 818.254,1156.99 818.254,1160.01C818.254,1163.25 818.025,1166.17 817.568,1168.77C817.111,1171.37 816.447,1173.36 815.576,1174.74C814.705,1176.12 813.789,1176.81 812.828,1176.81C812.125,1176.81 811.494,1176.44 810.936,1175.68C810.377,1174.92 809.918,1173.97 809.559,1172.81L809.559,1188.24L807.449,1188.24ZM809.359,1160.43C809.359,1164.51 809.684,1167.52 810.332,1169.47C810.98,1171.42 811.766,1172.4 812.687,1172.4C813.625,1172.4 814.428,1171.39 815.096,1169.37C815.764,1167.35 816.098,1164.22 816.098,1159.98C816.098,1155.94 815.771,1152.92 815.119,1150.91C814.467,1148.9 813.687,1147.89 812.781,1147.89C811.883,1147.89 811.088,1148.96 810.396,1151.1C809.705,1153.24 809.359,1156.35 809.359,1160.43Z" style="fill-rule:nonzero;"/>
                <path d="M820.012,1160.25C820.012,1154.38 820.652,1150.03 821.934,1147.21C823.004,1144.86 824.309,1143.68 825.848,1143.68C827.559,1143.68 828.957,1145.11 830.043,1147.97C831.129,1150.82 831.672,1154.77 831.672,1159.8C831.672,1163.88 831.432,1167.09 830.951,1169.43C830.471,1171.77 829.771,1173.58 828.854,1174.87C827.936,1176.17 826.934,1176.81 825.848,1176.81C824.105,1176.81 822.697,1175.39 821.623,1172.55C820.549,1169.7 820.012,1165.6 820.012,1160.25ZM822.18,1160.25C822.18,1164.31 822.527,1167.35 823.223,1169.37C823.918,1171.39 824.793,1172.4 825.848,1172.4C826.895,1172.4 827.766,1171.38 828.461,1169.35C829.156,1167.32 829.504,1164.23 829.504,1160.07C829.504,1156.15 829.154,1153.18 828.455,1151.16C827.756,1149.14 826.887,1148.13 825.848,1148.13C824.793,1148.13 823.918,1149.14 823.223,1151.15C822.527,1153.16 822.18,1156.19 822.18,1160.25Z" style="fill-rule:nonzero;"/>
                <path d="M833.301,1166.64L835.387,1165.8C835.504,1167.93 835.83,1169.56 836.365,1170.69C836.9,1171.83 837.648,1172.4 838.609,1172.4C839.578,1172.4 840.297,1171.89 840.766,1170.89C841.234,1169.88 841.469,1168.71 841.469,1167.35C841.469,1166.14 841.262,1165.18 840.848,1164.49C840.559,1164.01 839.84,1163.4 838.691,1162.67C837.145,1161.67 836.072,1160.81 835.475,1160.09C834.877,1159.36 834.424,1158.35 834.115,1157.07C833.807,1155.79 833.652,1154.37 833.652,1152.82C833.652,1151.4 833.779,1150.1 834.033,1148.89C834.287,1147.69 834.633,1146.69 835.07,1145.89C835.398,1145.28 835.846,1144.75 836.412,1144.33C836.979,1143.9 837.586,1143.68 838.234,1143.68C839.211,1143.68 840.068,1144.04 840.807,1144.76C841.545,1145.48 842.09,1146.45 842.441,1147.67C842.793,1148.89 843.035,1150.53 843.168,1152.58L841.105,1153.3C841.012,1151.66 840.74,1150.39 840.291,1149.48C839.842,1148.56 839.207,1148.1 838.387,1148.1C837.418,1148.1 836.727,1148.51 836.312,1149.33C835.898,1150.14 835.691,1151.1 835.691,1152.19C835.691,1152.89 835.777,1153.51 835.949,1154.07C836.121,1154.65 836.391,1155.13 836.758,1155.5C836.969,1155.7 837.59,1156.16 838.621,1156.88C840.113,1157.89 841.154,1158.72 841.744,1159.37C842.334,1160.02 842.797,1160.96 843.133,1162.19C843.469,1163.42 843.637,1164.95 843.637,1166.79C843.637,1168.58 843.432,1170.26 843.021,1171.84C842.611,1173.43 842.02,1174.65 841.246,1175.52C840.473,1176.38 839.598,1176.81 838.621,1176.81C837.004,1176.81 835.771,1175.96 834.924,1174.25C834.076,1172.54 833.535,1170 833.301,1166.64Z" style="fill-rule:nonzero;"/>
                <path d="M846.145,1176.1L846.145,1144.4L848.043,1144.4L848.043,1148.91C848.957,1145.43 850.277,1143.68 852.004,1143.68C852.754,1143.68 853.443,1144.03 854.072,1144.71C854.701,1145.4 855.172,1146.3 855.484,1147.42C855.797,1148.53 856.016,1149.85 856.141,1151.38C856.219,1152.38 856.258,1154.12 856.258,1156.61L856.258,1176.1L854.148,1176.1L854.148,1156.82C854.148,1154.63 854.066,1152.99 853.902,1151.91C853.738,1150.82 853.447,1149.96 853.029,1149.31C852.611,1148.66 852.121,1148.34 851.559,1148.34C850.66,1148.34 849.885,1149.07 849.232,1150.52C848.58,1151.97 848.254,1154.73 848.254,1158.79L848.254,1176.1L846.145,1176.1Z" style="fill-rule:nonzero;"/>
                <path d="M868.012,1165.89L870.191,1166.58C869.848,1169.82 869.211,1172.34 868.281,1174.13C867.352,1175.92 866.164,1176.81 864.719,1176.81C862.898,1176.81 861.455,1175.39 860.389,1172.53C859.322,1169.67 858.789,1165.67 858.789,1160.52C858.789,1155.18 859.328,1151.05 860.406,1148.1C861.484,1145.16 862.883,1143.68 864.602,1143.68C866.266,1143.68 867.625,1145.13 868.68,1148.01C869.734,1150.9 870.262,1154.96 870.262,1160.19C870.262,1160.51 870.258,1160.99 870.25,1161.62L860.969,1161.62C861.047,1165.1 861.434,1167.77 862.129,1169.62C862.824,1171.47 863.691,1172.4 864.73,1172.4C865.504,1172.4 866.164,1171.88 866.711,1170.84C867.258,1169.81 867.691,1168.16 868.012,1165.89ZM861.086,1157.2L868.035,1157.2C867.941,1154.54 867.676,1152.54 867.238,1151.21C866.566,1149.14 865.695,1148.1 864.625,1148.1C863.656,1148.1 862.842,1148.93 862.182,1150.58C861.521,1152.23 861.156,1154.44 861.086,1157.2Z" style="fill-rule:nonzero;"/>
                <path d="M875.137,1176.1L871.328,1144.4L873.508,1144.4L875.488,1162.7L876.227,1169.5C876.258,1169.16 876.473,1166.98 876.871,1162.96L878.852,1144.4L881.02,1144.4L882.883,1162.79L883.504,1168.85L884.219,1162.73L886.352,1144.4L888.402,1144.4L884.512,1176.1L882.32,1176.1L880.34,1157.12L879.859,1151.71L877.34,1176.1L875.137,1176.1Z" style="fill-rule:nonzero;"/>
                <path d="M889.328,1166.64L891.414,1165.8C891.531,1167.93 891.857,1169.56 892.393,1170.69C892.928,1171.83 893.676,1172.4 894.637,1172.4C895.605,1172.4 896.324,1171.89 896.793,1170.89C897.262,1169.88 897.496,1168.71 897.496,1167.35C897.496,1166.14 897.289,1165.18 896.875,1164.49C896.586,1164.01 895.867,1163.4 894.719,1162.67C893.172,1161.67 892.1,1160.81 891.502,1160.09C890.904,1159.36 890.451,1158.35 890.143,1157.07C889.834,1155.79 889.68,1154.37 889.68,1152.82C889.68,1151.4 889.807,1150.1 890.061,1148.89C890.314,1147.69 890.66,1146.69 891.098,1145.89C891.426,1145.28 891.873,1144.75 892.439,1144.33C893.006,1143.9 893.613,1143.68 894.262,1143.68C895.238,1143.68 896.096,1144.04 896.834,1144.76C897.572,1145.48 898.117,1146.45 898.469,1147.67C898.82,1148.89 899.062,1150.53 899.195,1152.58L897.133,1153.3C897.039,1151.66 896.768,1150.39 896.318,1149.48C895.869,1148.56 895.234,1148.1 894.414,1148.1C893.445,1148.1 892.754,1148.51 892.34,1149.33C891.926,1150.14 891.719,1151.1 891.719,1152.19C891.719,1152.89 891.805,1153.51 891.977,1154.07C892.148,1154.65 892.418,1155.13 892.785,1155.5C892.996,1155.7 893.617,1156.16 894.648,1156.88C896.141,1157.89 897.182,1158.72 897.771,1159.37C898.361,1160.02 898.824,1160.96 899.16,1162.19C899.496,1163.42 899.664,1164.95 899.664,1166.79C899.664,1168.58 899.459,1170.26 899.049,1171.84C898.639,1173.43 898.047,1174.65 897.273,1175.52C896.5,1176.38 895.625,1176.81 894.648,1176.81C893.031,1176.81 891.799,1175.96 890.951,1174.25C890.104,1172.54 889.562,1170 889.328,1166.64Z" style="fill-rule:nonzero;"/>
            </g>
            <g transform="matrix(3.75195e-17,0.612739,-0.612739,3.75195e-17,1163.39,1081.76)">
                <path d="M0,-10.237L22.541,-34.346L13.98,-34.346L-3.712,-15.422L-17.26,-34.346L-40.671,-34.346L-16.971,-1.241L-40.671,24.109L-32.111,24.109L-13.258,3.944L1.177,24.109L24.589,24.109L0,-10.237ZM-28.608,-28.146L-20.446,-28.146L12.526,17.909L4.363,17.909L-28.608,-28.146Z" style="fill-rule:nonzero;"/>
            </g>
        </g>
    </g>
</svg>
