<?xml version="1.0" encoding="UTF-8" standalone="no"?>
<!DOCTYPE svg PUBLIC "-//W3C//DTD SVG 1.1//EN" "http://www.w3.org/Graphics/SVG/1.1/DTD/svg11.dtd">
<svg width="100%" height="100%" viewBox="0 0 47 1513" version="1.1" xmlns="http://www.w3.org/2000/svg" xmlns:xlink="http://www.w3.org/1999/xlink" xml:space="preserve" xmlns:serif="http://www.serif.com/" style="fill-rule:evenodd;clip-rule:evenodd;stroke-linejoin:round;stroke-miterlimit:2;">
    <g transform="matrix(1,0,0,1,-1500.54,-216.59)">
        <g transform="matrix(1.27567e-16,2.08333,-2.08333,1.27567e-16,3955.7,-145.6)">
            <g transform="matrix(0.373124,0,0,0.373124,722.84,1173.43)">
                <path d="M0,-46.089L-46.876,-46.089C-51.508,-46.089 -55.263,-42.334 -55.263,-37.704L-55.263,-8.385C-55.263,-3.753 -51.508,0 -46.876,0L0,0C4.629,0 8.385,-3.753 8.385,-8.385L8.385,-37.704C8.385,-42.334 4.629,-46.089 0,-46.089M-15.909,-21.021L-28.944,-14.508C-30.448,-13.754 -32.219,-14.847 -32.219,-16.528L-32.219,-29.558C-32.219,-31.239 -30.448,-32.333 -28.944,-31.582L-15.909,-25.065C-14.244,-24.234 -14.244,-21.855 -15.909,-21.021" style="fill-rule:nonzero;"/>
            </g>
            <g transform="matrix(0.881338,0,0,0.881338,-255.986,-54.6602)">
                <g transform="matrix(0.373124,0,0,0.373124,504.811,1396.47)">
                    <path d="M0,-60.415L-31.249,-60.415C-39.301,-60.415 -45.832,-53.884 -45.832,-45.832L-45.832,-14.583C-45.832,-6.531 -39.301,0 -31.249,0L0,0C8.052,0 14.583,-6.531 14.583,-14.583L14.583,-45.832C14.583,-53.884 8.052,-60.415 0,-60.415M9.375,-15.625C9.375,-9.875 4.708,-5.209 -1.042,-5.209L-30.207,-5.209C-35.957,-5.209 -40.624,-9.875 -40.624,-15.625L-40.624,-44.79C-40.624,-50.54 -35.957,-55.207 -30.207,-55.207L-1.042,-55.207C4.708,-55.207 9.375,-50.54 9.375,-44.79L9.375,-15.625Z" style="fill-rule:nonzero;"/>
                </g>
                <g transform="matrix(0.373124,0,0,0.373124,498.992,1391.03)">
                    <path d="M0,-31.249C-8.625,-31.249 -15.625,-24.249 -15.625,-15.625C-15.625,-7 -8.625,0 0,0C8.625,0 15.624,-7 15.624,-15.625C15.624,-24.249 8.625,-31.249 0,-31.249M0,-5.208C-5.739,-5.208 -10.416,-9.885 -10.416,-15.625C-10.416,-21.364 -5.739,-26.041 0,-26.041C5.739,-26.041 10.416,-21.364 10.416,-15.625C10.416,-9.885 5.739,-5.208 0,-5.208" style="fill-rule:nonzero;"/>
                </g>
                <g transform="matrix(0.373124,0,0,0.373124,505.211,1377.81)">
                    <path d="M0,6.25C-1.723,6.25 -3.125,4.848 -3.125,3.125C-3.125,1.402 -1.723,0 0,0C1.723,0 3.125,1.402 3.125,3.125C3.125,4.848 1.723,6.25 0,6.25" style="fill-rule:nonzero;"/>
                </g>
            </g>
            <g transform="matrix(0.48,0,0,0.48,90.4028,612.722)">
                <g transform="matrix(50,0,0,50,1687.89,1168.13)">
                </g>
                <text x="229.418px" y="1168.13px" style="font-family:'ArialMT', 'Arial', sans-serif;font-size:50px;">@koran.jawapos             @koran_jawapos            @jawaposnews</text>
            </g>
            <g transform="matrix(0.294115,0,0,0.294115,451.867,1166.33)">
                <path d="M0,-10.237L22.541,-34.346L13.98,-34.346L-3.712,-15.422L-17.26,-34.346L-40.671,-34.346L-16.971,-1.241L-40.671,24.109L-32.111,24.109L-13.258,3.944L1.177,24.109L24.589,24.109L0,-10.237ZM-28.608,-28.146L-20.446,-28.146L12.526,17.909L4.363,17.909L-28.608,-28.146Z" style="fill-rule:nonzero;"/>
            </g>
        </g>
    </g>
</svg>
